<?xml version="1.0" encoding="UTF-8" standalone="no"?>
<!-- Created with Inkscape (http://www.inkscape.org/) -->

<svg
   width="120"
   height="120"
   viewBox="0 0 120 120"
   version="1.1"
   id="svg1"
   xml:space="preserve"
   inkscape:version="1.3.2 (091e20e, 2023-11-25, custom)"
   sodipodi:docname="绘图.svg"
   xmlns:inkscape="http://www.inkscape.org/namespaces/inkscape"
   xmlns:sodipodi="http://sodipodi.sourceforge.net/DTD/sodipodi-0.dtd"
   xmlns:xlink="http://www.w3.org/1999/xlink"
   xmlns="http://www.w3.org/2000/svg"
   xmlns:svg="http://www.w3.org/2000/svg"><sodipodi:namedview
     id="namedview1"
     pagecolor="#ffffff"
     bordercolor="#000000"
     borderopacity="0.25"
     inkscape:showpageshadow="2"
     inkscape:pageopacity="0.0"
     inkscape:pagecheckerboard="0"
     inkscape:deskcolor="#d1d1d1"
     inkscape:document-units="px"
     inkscape:zoom="3.2541667"
     inkscape:cx="135.51857"
     inkscape:cy="60.384123"
     inkscape:window-width="1920"
     inkscape:window-height="991"
     inkscape:window-x="-9"
     inkscape:window-y="-9"
     inkscape:window-maximized="1"
     inkscape:current-layer="g3" /><defs
     id="defs1"><clipPath
       clipPathUnits="userSpaceOnUse"
       id="clipPath3"><use
         x="0"
         y="0"
         xlink:href="#g2"
         id="use3" /></clipPath><clipPath
       clipPathUnits="userSpaceOnUse"
       id="clipPath42"><path
         id="path43"
         style="fill:#ff0000;fill-opacity:1;fill-rule:nonzero;stroke:none;stroke-width:10.4816"
         d="M -1033.5136,-439.80571 V 559.44145 H 147.1671 c -3.5832,-21.82627 -5.82004,-43.95843 -8.3233,-65.67237 -3.80948,-58.52041 -4.95577,-117.11564 -5.03831,-175.76404 -0.63769,-44.97419 -1.49794,-89.94316 -3.4664,-134.87996 -1.30735,-32.82244 -1.94235,-65.71481 -5.32052,-98.404553 -2.8609,-27.477526 -5.96873,-54.959608 -7.19466,-82.579148 -0.85128,-28.5946 -0.65626,-57.310473 2.59974,-85.760856 1.31117,-11.456754 2.94572,-21.229443 4.73608,-30.215943 -4.99879,-3.31938 -9.87995,-6.82775 -14.9941,-9.96107 -14.400172,-8.33593 -28.899193,-16.60107 -42.422704,-26.41034 -20.995334,-16.14158 -38.943618,-34.95764 -53.103883,-57.68687 -13.3281825,-21.26249 -24.0318579,-42.85491 -30.693473,-70.30977 -1.202619,-6.57445 -2.628221,-13.10035 -3.607446,-19.71418 -4.1114,-27.77678 -1.50753,-56.09154 4.615047,-83.30699 6.1205129,-21.35402 8.1326177,-32.27593 20.2541563,-53.04946 1.1087213,-1.90035 2.3263027,-3.68436 3.4865133,-5.53161 z m 2184.5364,0 c 0.356,0.71795 0.7904,1.68482 1.1487,2.41228 v -2.41228 z m -505.2229,120.80137 c -0.19192,-1.26814 -0.24971,2.55029 -0.38281,3.82638 0.30542,2.67974 0.8554,5.31423 1.20912,7.98549 -0.031,-3.96012 -0.23733,-7.9138 -0.82651,-11.81187 z m -540.12849,21.79374 c -0.21359,-0.90513 0.0516,1.85677 0.0826,2.7866 0.11144,0.58763 0.28479,1.12303 0.40345,1.70524 -0.21359,-1.80648 -0.3013,-3.70152 -0.48393,-4.49184 z M 1152.1715,533.01022 c -4.1707,8.06226 -8.2157,16.20352 -12.5555,24.16452 -0.4045,0.74212 -0.8822,1.52257 -1.2898,2.26671 h 13.8453 z" /></clipPath></defs><g
     inkscape:label="图层 1"
     inkscape:groupmode="layer"
     id="layer1"><g
       id="g3"
       clip-path="url(#clipPath3)"
       transform="matrix(0.09691344,0,0,0.09392032,107.07347,53.80474)"><g
         inkscape:label="Clip"
         id="g2"
         clip-path="url(#clipPath42)"><g
           id="g1"
           transform="translate(-1033.506,-439.82196)">
	<path
   id="path1"
   class="st0"
   d="M 170.18694,0.07863555 C 169.1035,-0.05886081 167.82281,6.2684235e-6 166.35781,0.24499998 157.56807,2.194948 149.7544,5.1108248 140.96466,9.0207234 L 5.2120786,65.66781 c -4.87987208,0.979974 -5.85707151,4.88404 -4.87709699,9.77391 8.78977119,40.02896 15.63110439,80.07615 22.47092239,120.11511 8.789766,49.8087 17.57582,99.60735 24.405638,149.41605 l 12.696575,90.81418 11.729217,94.72375 20.495899,177.73959 18.561187,186.51532 6.83196,94.74454 c 0.98,7.80974 2.92197,9.75311 10.74171,9.75311 h 29.28273 c 13.67974,0 27.36237,-0.007 41.03211,-0.97739 43.93896,-2.93 87.88399,-8.7825 131.82269,-17.57224 61.52844,-10.73974 119.15123,-31.25743 174.80967,-60.55665 32.22922,-16.59974 61.53168,-38.0762 86.92116,-64.44542 15.62948,-15.62974 26.36537,-34.18022 32.22511,-55.6697 6.83974,-22.45948 3.90052,-42.95376 -11.72922,-61.51324 -4.87974,-5.86 -9.74616,-10.75852 -16.58616,-15.63826 -17.57948,-13.67974 -36.14142,-25.37449 -56.6509,-35.14449 -41.98896,-18.54948 -83.99441,-33.21231 -127.93311,-43.96179 -49.8087,-12.68974 -101.54766,-18.54964 -153.3061,-18.54964 -16.59974,0 -32.23195,0.97957 -48.83143,3.90957 -8.79,0.97 -9.77435,0.968 -9.77435,-6.84174 -7.81974,-77.14792 -15.61616,-155.26057 -20.4959,-233.38849 -2.93,-49.7987 -5.87212,-100.58474 -6.85212,-150.39344 -0.97,-57.6187 -0.97,-114.25941 0,-170.897858 l 0.98751,-12.685287 c 0.97,-16.599584 0.96736,-32.230984 0.96736,-47.8505681 0.735,-4.3948856 -0.71989,-6.59561201 -3.9702,-7.00810135 z M 1181.8823,37.219493 c -2.9055,1.244144 -5.8402,2.455936 -8.7466,3.701609 -0.2127,1.615555 -0.4341,3.23027 -0.6449,4.845364 2.9431,-1.036343 6.0078,-1.514047 9.1093,-1.788418 0.096,-2.252252 0.1852,-4.50528 0.2822,-6.758555 z m 99.5975,27.658086 c -0.3861,0.664451 -0.7607,1.333216 -1.1487,1.996373 -0.3,3.799902 -0.6128,7.594347 -0.8867,11.395963 -0.2264,2.702975 -0.458,5.406641 -0.6852,8.110266 0.6887,0.279951 1.7494,0.220263 2.2974,0.623866 0.088,-7.343111 0.2875,-14.745816 0.4232,-22.126468 z M 833.33106,112.54099 c -32.21922,-0.97 -58.57427,3.91652 -85.91349,8.79652 -4.88974,0.97974 -5.86725,2.92938 -4.89725,7.81912 l 4.89725,27.32536 c 6.82974,40.03896 13.6688,81.05355 19.52854,121.09251 l 12.67642,89.85758 11.72922,98.63331 16.60632,139.64214 15.6188,154.303 c 1.95,30.26922 4.88948,59.57018 7.81948,88.8594 l 2.92222,34.18789 c 0,4.88974 2.93974,7.82174 7.81948,6.84174 l 70.31484,2.91137 c 7.80974,0 8.78684,-0.96598 8.78684,-8.77572 L 905.60077,714.11475 897.80145,615.46064 887.05974,487.5472 869.48607,242.43001 861.66659,124.26968 c 0,-8.78974 -1.95196,-11.72869 -10.7417,-11.72869 z m 323.94404,7.4864 c -0.8358,1.05685 -1.7785,1.91378 -2.761,2.68262 0.4978,0.72955 0.9762,1.47278 1.4712,2.20433 0.282,-1.00476 0.5672,-2.00879 0.8464,-3.01535 0.1636,-0.61977 0.2841,-1.25091 0.4434,-1.8716 z m 700.0045,1.58046 c -5.1822,0.79675 -6.0873,2.08131 -5.6228,6.28025 1.8221,-2.1745 3.731,-4.2854 5.6228,-6.28025 z m -2.9222,17.84258 c -0.2099,0.0576 -0.3748,0.18895 -0.4837,0.37432 0.5446,-0.0961 1.1024,-0.15464 1.6526,-0.22875 -0.4455,-0.11702 -0.8851,-0.22347 -1.1689,-0.14557 z m -575.699,17.38508 c -0.01,0.0486 -0.014,0.097 -0.02,0.14557 0.059,-0.0297 0.122,-0.0545 0.1814,-0.0832 -0.053,-0.0244 -0.1077,-0.0377 -0.1612,-0.0624 z m 580.6365,14.14098 c 0.3423,1.94409 0.7324,3.90075 1.0682,5.84355 0.1723,-1.81812 0.4795,-3.56687 1.0076,-5.19889 -0.361,0.0799 -0.7286,0.144 -1.0883,0.22875 -0.3049,-0.30572 -0.6633,-0.57848 -0.9875,-0.87341 z m -624.9335,66.54577 c -0.018,0.4345 -0.022,0.71262 -0.04,1.14376 0.2442,-0.24687 0.4974,-0.4851 0.7457,-0.72785 -0.1938,-0.12976 -0.5164,-0.28649 -0.7054,-0.41591 z m -553.36908,60.57745 c -7.81,0 -15.61103,0.96398 -22.45077,1.93398 -4.88,0 -6.84461,2.92939 -5.86461,7.81913 l 7.81948,65.44361 8.78683,78.10809 c 0.98,7.81 1.96461,8.79913 9.77435,7.81913 l 38.06957,-1.95478 c 7.81974,0 7.83212,-0.98678 6.85212,-8.79652 l -9.77435,-106.43164 -3.90974,-34.18789 c -0.97974,-4.88974 -2.92222,-6.83913 -6.83196,-7.81913 -6.82974,-0.97 -14.66118,-1.93398 -22.47092,-1.93398 z m -52.78148,10.2938 c -1.2825,0.0144 -2.88179,0.1942 -4.83679,0.4367 l -34.17999,5.86435 c -8.78974,0.98 -10.72932,2.91815 -7.79932,11.70789 l 24.40564,137.70816 c 0.97,6.82974 1.96435,8.79434 9.77435,5.86434 l 23.43828,-5.86434 c 11.71948,-0.98 12.67906,-2.94113 11.70906,-14.66087 v -5.84355 l -9.75419,-78.12889 c -1.95,-16.59948 -4.88974,-33.20587 -7.81948,-49.80535 0,-5.8575 -1.09006,-7.32157 -4.93756,-7.27844 z m 393.61396,6.30105 c -8.79,0 -9.7568,0.98417 -8.7868,9.77391 0.98,18.54948 0.9673,37.09942 0.9673,55.6489 l 2.9424,83.01585 c -0.98,7.80974 -0.011,7.81677 7.7993,8.79651 11.72,0.98 23.4449,1.93399 36.1349,1.93399 8.79,0 10.7543,0.009 9.7743,-10.7305 v -67.3776 -68.37577 c 0,-7.81 -0.01,-9.75312 -7.8194,-9.75312 -13.68,-1.95 -27.342,-2.93217 -41.012,-2.93217 z m 768.6869,0.20795 c -0.1301,0.1919 -0.2523,0.39074 -0.3829,0.58228 0.2148,0.0881 0.4248,0.20342 0.6449,0.27034 0.5834,0.17735 0.263,-0.2522 -0.262,-0.85262 z m -805.80925,1.74683 -40.02444,2.93217 c -3.9,0 -5.87725,1.95435 -4.89725,5.86435 l 1.95487,19.52702 c 0.98,27.33948 2.93725,54.67105 4.89725,81.04027 0.97,14.64974 1.93984,28.33493 3.88958,42.98441 0,4.88 1.97238,7.81174 6.85212,6.84174 l 30.27025,-2.93217 c 4.88,-0.98 6.83197,-2.92939 6.83197,-7.81913 0.97,-13.66974 1.95487,-28.32127 1.95487,-43.94101 l -2.92223,-95.70113 c 0,-7.81974 -1.96725,-8.79652 -8.80699,-8.79652 z m 1072.49785,2.76581 -2.1766,0.16636 c -3.9,0 -5.8571,1.9412 -4.8771,6.82094 l 1.31,22.85432 c 0.523,-1.89817 1.0275,-3.807 1.5719,-5.69798 1.3348,-7.43366 2.9284,-14.81556 4.0105,-22.29284 0.089,-0.61355 0.1036,-1.23373 0.1613,-1.8508 z m -72.31,2.68263 c -0.91,2.84842 -2.0193,5.65755 -3.285,8.42219 1.249,-0.0484 2.5912,0.0636 3.9299,0.16637 z m -71.5039,2.72421 c -0.5247,0.16581 -1.1092,0.33192 -1.6325,0.4991 -0.2636,0.39356 -0.5216,0.79206 -0.7859,1.18534 0.4378,0.17671 0.8575,0.35809 1.2495,0.56148 0.4179,-0.73445 0.759,-1.50783 1.1689,-2.24592 z m 241.7387,9.3788 c -7.2737,5.73461 -14.3987,11.67797 -21.4431,17.67622 1.0633,2.19465 1.9049,4.44531 2.499,6.73776 4.4524,0.53916 8.907,1.05937 13.3617,1.58046 1.7942,-1.18127 3.5974,-1.94127 5.3607,-2.41229 0.5483,-3.17294 1.0897,-6.34766 1.4309,-9.56595 -0.2101,-4.41543 0.3647,-9.68309 -1.2092,-14.0162 z m -248.8528,39.32439 c 0,0.0689 -0.016,0.13901 -0.02,0.20795 0.333,0.0824 0.6404,0.18381 0.9674,0.27035 0.05,-0.0288 0.091,-0.0752 0.141,-0.10398 -0.3536,-0.1202 -0.72,-0.2447 -1.0882,-0.37432 z m 273.7421,14.30734 c -4.0035,13.13403 -7.8707,26.31474 -11.2455,39.63632 -2.2216,8.82743 -3.9916,17.7487 -5.5825,26.70149 3.1911,-2.46305 6.4074,-4.88323 9.7542,-7.11208 2.2739,-1.51425 4.6629,-2.95211 7.0738,-4.28388 v -46.06215 z m -189.7835,5.44843 c -0.3397,0.17765 -0.7114,0.34208 -1.048,0.51989 -0.8628,0.45575 -1.6633,0.95424 -2.5192,1.4141 1.772,10.99401 3.4864,21.99676 5.1794,33.00254 0.3205,-0.15033 0.6465,-0.28737 0.9674,-0.4367 z m -788.1147,29.28014 c 1.2497,4.23107 2.4406,8.48076 3.7082,12.70608 -0.3567,-4.124 -0.6936,-8.24949 -1.048,-12.37335 -0.882,-0.014 -1.7663,-0.12209 -2.6602,-0.33273 z m 732.935,28.38593 c -2.8134,3.18254 -5.6976,6.14296 -8.5249,9.25402 1.9468,-0.5428 3.8796,-0.94584 5.7639,-0.95659 0.8863,-0.47912 1.7741,-0.95515 2.6602,-1.4349 0.052,-2.28695 0.045,-4.57571 0.1008,-6.86253 z m 124.2853,17.11474 c -0.1318,0.29231 -0.2712,0.58111 -0.403,0.87342 8e-4,0.0204 -9e-4,0.042 0,0.0624 0,2.4804 0.7738,4.43916 2.1564,5.65639 -0.5801,-2.19939 -1.1604,-4.39733 -1.7534,-6.59219 z m -92.2819,9.42039 c -0.2953,0.16004 -0.5914,0.31828 -0.8868,0.4783 -0.087,4.72763 -0.075,9.45476 -0.141,14.18256 0.2322,-0.11088 0.1403,-0.0621 0.403,-0.18716 0.7231,-0.75139 1.4348,-1.51392 2.1564,-2.26671 -0.5571,-4.06217 -0.9638,-8.1464 -1.5316,-12.20699 z M 705.41811,506.09683 c -27.33922,1.95 -55.66443,6.85373 -85.93365,13.68347 -4.88974,0.98 -6.8446,3.89573 -5.8646,8.77573 l 15.6188,86.90461 59.57313,306.65123 c 0.98,7.80974 2.92197,8.78913 10.74171,7.81913 l 72.26971,-6.84174 c 7.80974,-0.97 8.78684,-2.93895 8.78684,-11.72869 l -6.83197,-63.46803 -7.81948,-79.10628 -12.69657,-117.18295 c -3.91,-40.03896 -8.77881,-79.09876 -15.61881,-119.13772 -2.92974,-24.41948 -5.85589,-27.34876 -32.22511,-26.36876 z m 1052.40499,12.24858 c -0.4965,0.11125 -0.9941,0.10356 -1.4913,0.20795 -1.8081,2.19515 -3.6194,4.38326 -5.3608,6.63379 2.4542,1.53681 4.9246,3.47412 7.2753,6.46741 1.8197,-3.63301 3.9357,-7.21097 6.1065,-10.77209 -4.5588,1.20669 -9.0289,2.95291 -7.9606,-0.10398 0.3293,-0.94233 0.841,-1.72388 1.4309,-2.43308 z m -755.5268,3.86797 c -13.67276,0.24375 -27.35739,0.96808 -41.03213,2.43308 -8.77974,0.98 -10.73394,2.93374 -9.7542,13.68348 l 11.72922,132.8004 7.79933,86.92541 15.6188,175.76401 c 0.98,10.74974 1.97212,10.75391 10.76186,9.77391 16.60002,-0.97974 33.19882,-1.93398 49.79882,-1.93398 h 23.4382 c 5.86,0.97 8.7794,-1.97993 7.7994,-7.83993 V 929.931 808.83849 c 0,-53.7087 -0.9749,-106.45865 -1.9549,-160.16735 l -0.9674,-58.58107 -2.9423,-52.73753 c 0,-7.80974 -0.9669,-8.79869 -8.7869,-11.72869 l -20.4959,-2.93217 c -13.675,-0.49 -27.3394,-0.72205 -41.0119,-0.4783 z m 1173.1635,4.92855 c -2.2955,3.74116 -4.6847,7.662 -6.973,11.62471 1.3686,-0.41139 2.3545,-0.67949 3.9097,-1.20614 2.7404,-0.86875 5.5411,-1.73709 8.3636,-2.53706 -0.8677,-3.74503 -2.4943,-6.29294 -5.3003,-7.88151 z m -907.5834,11.79108 c -0.2223,0.567 -0.5793,1.01335 -0.8465,1.53887 0.419,1.09905 0.8169,2.25978 1.1891,3.51445 -0.1159,-1.68456 -0.2262,-3.3693 -0.3426,-5.05332 z m 502.0387,10.89687 c -0.3824,0.0913 -0.7135,0.17957 -1.0883,0.27034 0.1143,0.21488 0.2279,0.42995 0.3426,0.64466 0.2513,-0.30338 0.4937,-0.61218 0.7457,-0.915 z m -36.4775,0.89421 c -1.5828,2.62579 -3.0424,5.3373 -4.5345,8.02708 7.807,1.14867 12.6087,8.42226 9.8147,18.38327 1.6907,-1.97784 3.6416,-3.78842 5.6227,-5.57321 -2.9547,-5.81501 -5.9421,-11.61794 -9.21,-17.2811 -0.7051,-1.22195 -1.1462,-2.37499 -1.6929,-3.55604 z m 330.3326,2.97376 c -0.8509,0.33139 -1.7082,0.64672 -2.5594,0.97739 l 0.141,2.01717 c 0.8164,-0.98959 1.5999,-2.00681 2.4184,-2.99456 z m 39.5408,26.6391 c -0.073,0.077 -0.1485,0.1518 -0.2217,0.22875 -0.02,0.12473 -0.04,0.24962 -0.06,0.37432 0.097,-0.19944 0.1846,-0.40371 0.2821,-0.60307 z m -363.3236,9.8571 c -0.2507,0.29995 2.1574,1.69504 4.7965,2.89058 0.1327,-0.59705 0.2471,-1.1887 0.4031,-1.78842 -1.4423,-0.35967 -2.7965,-0.71831 -4.4741,-1.08137 -0.4285,-0.0927 -0.6625,-0.0962 -0.7255,-0.0208 z m -432.6106,16.15814 c -0.2462,2.16092 -0.4867,4.32803 -0.7658,6.65458 0.7391,1.35087 1.361,2.77226 1.975,4.2007 -0.5559,-3.66492 -0.7378,-7.23861 -1.2092,-10.85528 z m 677.6948,19.33986 c -1.4794,2.90811 -3,5.7922 -4.4942,8.69255 1.6806,-1.36493 3.2173,-2.60636 4.8973,-3.97195 -0.1455,-1.5725 -0.2743,-3.14641 -0.4031,-4.7206 z m -243.6936,1.58047 1.0278,5.5732 c 1.0599,-0.95125 2.1265,-1.89502 3.1842,-2.84899 0.283,-0.88159 0.6807,-1.71893 0.9674,-2.59944 -1.7477,0.0278 -3.5002,0.0186 -5.1794,-0.12477 z m 92.1409,0.0624 c -3.7643,0.83531 -7.5324,1.65479 -11.2859,2.53706 -0.7288,0.0266 -1.4651,0.11957 -2.1967,0.16637 -0.9579,1.28733 -1.9843,2.43586 -2.8013,4.01354 -1.1096,0.65616 -2.2152,1.3201 -3.3253,1.97557 -0.349,5.71587 -0.8059,11.41051 -1.3301,17.09395 4.0737,-4.55755 8.1231,-9.13649 12.0517,-13.82904 3.1695,-3.78607 6.028,-7.86833 8.8876,-11.95745 z m -512.5789,1.66365 c -0.4232,0.0487 -0.8464,0.075 -1.2697,0.14557 -3.9375,0.43451 -6.3483,0.71667 -7.9807,0.10397 0.117,1.01259 -0.1331,1.64798 -0.1007,2.53706 2.7691,-0.61358 5.5334,-1.25716 8.3031,-1.8716 0.3137,-0.33672 0.708,-0.60076 1.048,-0.915 z m -67.2314,10.58493 c 0.224,2.81407 0.4426,5.62884 0.6651,8.443 0.2045,-2.00984 0.4034,-4.02046 0.6046,-6.03071 -0.07,-0.0782 -0.1305,-0.17272 -0.2016,-0.24955 -0.3771,-0.7112 -0.7021,-1.44642 -1.0681,-2.16274 z m 831.8474,9.00448 c -0.035,0.15211 -0.065,0.30546 -0.1008,0.4575 -0.4741,1.98101 -1.0041,3.94942 -1.4914,5.92673 1.8235,-0.60801 3.6774,-1.10082 5.5019,-1.70523 -1.3145,-1.54113 -2.6199,-3.09398 -3.9097,-4.679 z m -146.8772,5.94753 c -4.8326,5.42335 -9.8116,10.70792 -14.8732,15.90859 l 3.285,30.96458 0.4232,4.88696 c 1.1465,-2.99986 2.4285,-6.26209 3.7687,-9.58675 -0.1625,-5.09965 0.6277,-11.41168 2.9021,-19.58941 0.3913,-1.40745 2.8493,-4.16173 5.9653,-7.34083 -0.3287,-3.07958 -0.7508,-6.12699 -1.0681,-9.21243 -0.1821,-2.0085 -0.2333,-4.02184 -0.403,-6.03071 z m -160.3397,2.70342 c -3.2611,2.13192 -6.4235,4.59638 -9.5526,7.17446 -2.2982,8.90023 -4.3181,17.4297 -6.0662,29.17617 -1.5753,10.58629 -2.5724,21.25054 -3.0028,31.92117 l 3.4261,17.55145 c 3.0231,0.86174 4.4755,1.1873 7.6381,2.12114 2.7581,-24.5025 5.5489,-49.00198 8.2427,-73.51228 0.3656,-3.89487 0.5748,-6.34232 0.8867,-9.54516 -0.5044,-1.63636 -1.0563,-3.25492 -1.572,-4.88695 z M 1988.8,669.48749 c -1.3384,1.13477 -2.6661,2.28286 -4.0105,3.41047 1.5013,0.87373 3.0083,1.73148 4.5345,2.57865 -0.154,-1.9983 -0.3662,-3.99107 -0.524,-5.98912 z m -124.0234,2.30831 c -0.1463,0.0899 -0.1342,0.0755 -0.2821,0.16636 -12.1364,7.45547 -23.8406,15.66223 -36.2155,22.68795 -1.7047,0.96785 -3.3989,2.3132 -5.0988,3.57683 1.6627,6.03821 3.4772,12.0603 5.0988,18.09213 0.2926,1.12306 0.4978,2.26564 0.786,3.38968 16.7932,-16.7248 27.739,-27.6024 36.9813,-36.82892 z m 114.0072,6.19707 c -0.8533,0.72913 -1.7309,1.42772 -2.5796,2.16274 0.04,0.14779 0.1001,0.28938 0.1411,0.4367 0.8059,-0.85659 1.5601,-1.58033 2.3982,-2.51626 0.036,-0.0408 0.026,-0.0539 0.04,-0.0832 z m 206.5108,22.62556 c -1.4985,9.87468 -3.0194,19.7452 -4.5546,29.61287 1.5068,-0.53249 3.0046,-1.13012 4.5143,-1.64285 0.1393,-0.0473 0.2838,-0.078 0.4232,-0.12477 z m -90.9115,15.38871 c -5.7274,5.94746 -11.5377,11.80391 -17.3721,17.63463 l 0.3426,3.84718 c 5.6769,-7.15215 11.3555,-14.31566 17.0295,-21.48181 z m -223.8225,7.83993 c -12.7601,12.71801 -21.0835,21.05472 -32.8297,32.75299 0.051,0.23626 0.1107,0.47075 0.1612,0.70705 11.428,-5.20613 22.9821,-10.09683 34.5629,-14.93121 z m 255.6647,3.16092 c -2.9092,3.90997 -8.6393,11.29312 -16.042,20.69157 1.8944,3.70733 3.061,7.0067 3.6074,9.96107 4.9539,-2.11142 9.9597,-4.25534 14.9336,-6.40503 -0.7796,-8.14635 -1.7366,-16.66347 -2.499,-24.24761 z m -1848.54069,1.74683 c 56.63844,18.54948 111.31911,39.07195 164.04781,62.51143 -8.79,9.75974 -30.25863,28.30707 -65.41759,56.62629 -35.14922,27.33922 -60.54246,44.92517 -75.19194,53.71491 z m 1078.84609,14.28654 c -1.544,2.42906 -3.0706,4.87026 -4.6151,7.29924 0.7095,0.47531 1.4614,0.87606 2.1363,1.4141 1.1037,0.87996 0.8644,2.26144 0.3023,3.76399 0.4363,-0.0402 0.8046,0.0973 1.2293,0.0832 0.3844,-4.17344 0.8952,-8.32325 0.9472,-12.56051 z m 593.2727,1.3933 c -4.2172,1.86282 -8.9641,3.94289 -18.2186,7.98549 l 2.9827,33.95914 c 0.7526,0.58935 1.5084,1.18282 2.1161,1.80922 1.5841,-0.55757 1.4503,-0.4639 3.4462,-1.16455 7.6528,-2.68699 13.9846,-2.59962 18.7022,-0.85262 -0.1466,-0.58416 -0.2917,-1.16099 -0.4433,-1.74683 -0.1927,-0.25418 -0.3652,-0.54831 -0.5643,-0.79023 0.067,-0.23352 0.1163,-0.47299 0.1814,-0.70705 -0.85,-3.23325 -1.7442,-6.48757 -2.4587,-9.62834 -2.1843,-9.60016 -4.0696,-19.21638 -5.7437,-28.86423 z m -147.1392,0.62387 c -0.041,0.36028 -0.08,0.72108 -0.1209,1.08137 0.053,-0.053 0.2275,-0.23679 0.2821,-0.29114 -0.061,-0.26173 -0.1,-0.52855 -0.1612,-0.79023 z m 73.8618,37.24483 c -5.5335,1.83242 -11.1595,3.83255 -16.7877,6.07231 6.1126,-1.72409 11.406,-3.08456 16.9489,-4.53343 z m -654.2565,24.45558 c -0.3128,0.16313 -0.6324,0.24807 -0.9472,0.39511 0.2009,3.25192 0.3351,6.50275 0.5643,9.75312 0.1156,1.9415 0.2649,3.88131 0.3829,5.82275 0.014,-4.76322 0.047,-9.5239 0.06,-14.28655 -0.022,-0.56121 -0.039,-1.12321 -0.06,-1.68443 z m 742.8504,0.9358 c -2.0798,2.99476 -5.6749,5.63555 -10.0968,7.9231 1.733,0.36143 3.4665,0.71954 5.1995,1.08137 2.3212,-1.10421 4.683,-2.11459 6.9932,-3.24411 -0.6923,-1.93091 -1.4531,-3.79922 -2.0959,-5.76036 z m -467.9595,30.90219 c -0.9753,0.7432 -1.947,1.52381 -2.9222,2.26671 1.2418,1.07256 2.3518,2.40736 3.4663,3.72241 -0.1801,-1.99678 -0.3657,-3.99258 -0.5441,-5.98912 z m -225.1123,39.67791 c 0.029,0.29789 0.051,0.59634 0.081,0.89421 0.073,-0.064 0.1491,-0.12319 0.2217,-0.18716 -0.087,-0.24792 -0.2176,-0.45686 -0.3023,-0.70705 z m 885.0924,1.26853 c 0.1007,0.0729 0.282,0.23004 0.3627,0.27034 0.05,-0.0645 0.148,-0.12236 0.2015,-0.18716 -0.1862,-0.0409 -0.3783,-0.04 -0.5642,-0.0832 z m -768.5056,10.3146 c -1.5958,0.6866 -3.182,1.38903 -4.7763,2.07955 0.1374,0.23945 0.2875,0.46614 0.4232,0.70705 0.321,0.32755 0.6692,0.52014 0.9472,1.10216 1.2733,-1.16716 2.4983,-2.32697 3.7687,-3.49365 -0.1222,-0.12873 -0.2401,-0.26988 -0.3628,-0.39511 z m 439.241,16.59485 c 0.3512,0.30284 0.6966,0.61231 1.048,0.915 -0.023,-0.25677 -0.037,-0.46364 -0.06,-0.72784 -0.3303,-0.056 -0.6573,-0.13107 -0.9876,-0.18716 z m 32.9507,5.44843 c 0.047,2.06346 -0.1737,3.96752 -0.2419,5.96833 1.9987,-1.66566 3.9825,-3.34788 5.9654,-5.03253 -1.9077,-0.31271 -3.8154,-0.62566 -5.7235,-0.9358 z m -31.4593,6.0723 c -0.3336,0.30991 -0.645,0.63588 -0.8666,1.01899 -0.8557,1.47992 -0.5097,6.81972 0,5.17809 0.5415,-1.74241 0.7771,-3.90617 0.8666,-6.19708 z m -30.8346,5.78117 c 0.8986,5.04797 2.7896,6.56406 7.4568,6.36344 -2.9858,-2.52814 -5.6635,-4.86497 -7.4568,-6.36344 z M 1314.229,991.6314 c -0.2031,0.20134 -0.3972,0.4028 -0.6046,0.60307 0.4173,-0.0636 0.8321,-0.12157 1.2495,-0.18716 -0.2336,-0.11967 -0.4189,-0.28857 -0.6449,-0.41591 z" />
</g></g></g></g><style
     type="text/css"
     id="style1">
	.st0{fill:#07A3D7;}
</style></svg>
