<svg xmlns="http://www.w3.org/2000/svg" width="180" height="180" viewBox="0 0 47.625 47.625">
	<path d="m20.102 41.295-1.911-1.862c-.416-.406-.655-.967-.561-1.323.153-.595.203-.595 1.233.034 1.416.862 2.259.845 2.259-.05.4-1.296.605-1.3.309-2.2-.096-.295-.32-1.366-.184-3.926.111-2.03.14-3.69.06-3.69-.076 0-.94 1.333-1.924 2.969-2.022 3.37-5.273 7.51-6.55 8.347-1.099.72-1.547.696-2.545-.136-.736-.61-.793-.864-.627-2.69.145-1.6.363-2.178 1.054-2.795 1.096-.979 3.722-5.94 3.476-6.579a.815.815 0 0 0-.71-.475c-.742 0-3.293-1.662-3.082-2.006.098-.157 1.045-.708 2.103-1.226 2.024-.988 2.662-.956 5.138.256 1.014.497.992 1.898-.046 2.884-1.692 1.6-4.567 5.425-5.243 6.965-.683 1.568-.683 1.613-.053 1.613 1.292 0 9.159-7.972 9.163-9.286 0-.348.373-1.071.828-1.609.784-.932.797-1.03.298-2.03a3.814 3.814 0 0 1-.333-2.226c.171-1.045.088-1.211-.725-1.508a25.69 25.69 0 0 1-1.934-.823 19.943 19.946 0 0 0-2.718-.954l-1.7-.467 2.037-.608a18.6 18.602 0 0 0 3.863-1.77l1.826-1.167-.224-1.421c-.213-1.397-.907-2.268-1.796-2.268-.32 0-.388-.273-.228-.934.375-1.568.776-2.09 2.14-2.786l1.309-.668 1.753 1.88c1.28 1.375 1.696 2.054 1.544 2.534-.179.565-.034.655 1.088.663 1.361.013 2.826.926 2.826 1.76 0 .26-.571.909-1.273 1.44-2.792 2.116-3.236 3.317-4.057 10.997-.183 1.707-.156 1.796.446 1.468.719-.395 3.372-3.115 4.49-4.608.85-1.13.962-2.515.226-2.799-.804-.31-.593-.802.34-.802.577 0 .848-.188.848-.582 0-.51.098-.491.736.149.512.512.78 1.282.887 2.577.145 1.745.085 1.918-1.113 3.242-.698.773-1.43 1.402-1.626 1.402-.631 0-5.68 3.541-5.68 3.985 0 .587 2.304.555 3.462-.052.657-.341 1.28-.394 2.197-.187.79.179 1.438.162 1.685-.043.277-.23.721-.043 1.434.612 1.81 1.658 2.226 4.17.693 4.17-.374 0-.975.159-1.336.353-.787.42-2.154-.197-3.254-1.468-.773-.89-3.917-2.118-4.678-1.828-.47.181-.926 5.49-.868 10.111.026 2.074-.034 2.264-.755 2.458-1.662.446-2.812.151-4.017-1.02zm17.235-29.019c-.325-.183-.964-1.066-1.42-1.964-.513-1.011-1.13-1.72-1.61-1.856-.767-.214-.767-.224-.104-.606.376-.215.78-.544.907-.732.473-.714 2.229-.335 3.63.794 1.642 1.314 1.858 2.532.646 3.622-1.122 1.01-1.395 1.107-2.047.74z"/>
	<path fill="#36c" d="M0 2.646v42.333h7.936v-2.204H2.203V4.85h5.733V2.646zm47.625 0v42.333h-7.936v-2.204h5.733V4.85H39.69V2.646Z"/>
</svg>
